<svg width="865" height="713" viewBox="0 0 865 713" fill="none" xmlns="http://www.w3.org/2000/svg">
<path d="M491.003 70.1485C406.513 70.1485 389.743 147.475 376.855 167.727L491.003 344.472C546.236 341.403 662.593 331.584 686.159 316.855C715.617 298.444 697.206 235.847 686.159 208.231C675.113 180.614 678.795 150.97 710.093 127.223C721.225 118.777 725.436 99.6061 724.822 88.5595C722.367 69.5348 705.306 26.6987 656.702 7.55128C595.945 -16.383 560.965 22.28 551.759 44.3732C542.554 66.4663 506.652 70.1485 491.003 70.1485Z" fill="#CAE8F2"/>
<path d="M37.9448 260.144C67.4023 210.067 132.915 218.413 159.918 228.846L327.457 289.602C340.958 346.676 358.296 467.727 316.41 497.646C264.86 534.468 194.898 533.547 117.572 520.659C55.7113 510.349 47.5983 473.251 54.9748 433.207C58.7055 412.955 54.9752 405.591 42.0874 387.18C16.3116 350.358 1.12287 322.742 37.9448 260.144Z" fill="#FFB400"/>
<path d="M194.586 50.3325C194.586 26.3987 231.07 3.0749 248.418 0.622832C285.72 -4.64979 300.449 24.5572 320.701 50.3325C336.903 70.9528 351.519 58.9243 362.566 50.3325C398.572 34.7096 419.734 57.9882 434.46 74.1866L434.533 74.2672C476.878 125.818 441.733 130.086 441.733 164.48C441.733 173.686 441.733 187.917 463.826 214.19C518.323 278.997 448.484 339.385 406.752 361.478C331.431 386.333 281.722 368.843 268.67 361.478C229.888 339.594 206.072 308.875 169.251 260.218C117.701 192.097 155.607 143.308 188.747 121.215C221.887 99.1216 194.586 87.8836 194.586 50.3325Z" fill="#FFE6AB"/>
<path d="M612.618 205.282C524.246 208.228 511.05 289.052 515.96 327.715C536.212 300.712 564.565 278.374 515.96 405.041C467.355 531.708 557.846 549.721 607.555 541.742C633.33 539.901 688.563 539.441 711.116 536.68C740.355 533.099 832.629 533.918 825.264 473.162C817.9 412.406 836.311 423.452 847.357 379.266C858.404 335.079 801.33 278.006 749.779 278.006C708.539 278.006 717.939 251.31 698.229 231.978C680.278 214.373 638.393 205.282 612.618 205.282Z" fill="#5AA5B2"/>
<path d="M244.02 288.52C259.671 250.317 308.766 243.259 333.314 247.555C344.82 249.569 355.775 253.907 371.976 262.744C392.228 273.791 400.055 268.728 423.989 250.317C461.271 221.638 503.156 267.807 513.741 288.52C525.648 311.82 539.518 303.363 566.674 310.152C610.86 321.199 618.683 360.322 602.113 395.303C585.543 430.284 596.172 439.029 591.067 467.106C582.23 515.711 549.644 538.909 522.946 538.909C484.897 541.977 393.701 546.273 333.314 538.909C257.829 529.703 261.511 456.059 267.034 426.602C272.557 397.144 263.079 380.436 248.623 360.322C227.452 330.865 244.02 288.52 244.02 288.52Z" fill="#FFD817"/>
<path d="M425.644 344.285L425.644 353.491L425.644 362.696" stroke="black" stroke-width="10" stroke-linecap="round"/>
<path d="M467.989 344.285L467.989 353.491L467.989 362.696" stroke="black" stroke-width="10" stroke-linecap="round"/>
<path d="M623.562 312.986L623.562 322.192L623.562 331.397" stroke="black" stroke-width="10" stroke-linecap="round"/>
<path d="M665.907 312.986L665.907 322.192L665.907 331.397" stroke="black" stroke-width="10" stroke-linecap="round"/>
<path d="M67.5508 344.285L67.5508 353.491L67.5508 362.696" stroke="black" stroke-width="10" stroke-linecap="round"/>
<path d="M109.896 344.285L109.896 353.491L109.896 362.696" stroke="black" stroke-width="10" stroke-linecap="round"/>
<path d="M229.643 167.11L237.845 162.933L246.048 158.755" stroke="black" stroke-width="10" stroke-linecap="round"/>
<path d="M289.417 153.142L298.604 153.727L307.791 154.312" stroke="black" stroke-width="10" stroke-linecap="round"/>
<path d="M571.09 116.909L580.296 116.909L589.501 116.909" stroke="black" stroke-width="10" stroke-linecap="round"/>
<path d="M639.211 116.909L648.416 116.909L657.622 116.909" stroke="black" stroke-width="10" stroke-linecap="round"/>
<path d="M395.309 393.129C396.046 381.714 410.455 382.09 417.359 383.931C424.263 385.772 422.882 386.232 427.485 387.613C432.088 388.994 439.912 388.994 439.912 388.994C439.912 388.994 455.605 387.146 460.668 385.305C465.731 383.463 476.317 381.622 481.38 388.526C486.443 395.431 483.682 406.937 469.874 414.762C445.108 424.852 429.482 420.775 418.897 418.014L418.783 417.984C408.197 415.222 394.389 407.398 395.309 393.129Z" fill="black" stroke="black"/>
<mask id="mask0_382_922" style="mask-type:alpha" maskUnits="userSpaceOnUse" x="394" y="382" width="91" height="40">
<path d="M395.309 393.129C396.046 381.714 410.455 382.09 417.359 383.931C424.263 385.772 422.882 386.232 427.485 387.613C432.088 388.994 439.912 388.994 439.912 388.994C439.912 388.994 455.605 387.146 460.668 385.305C465.731 383.463 476.317 381.622 481.38 388.526C486.443 395.431 483.682 406.937 469.874 414.762C445.108 424.852 429.482 420.775 418.897 418.014L418.783 417.984C408.197 415.222 394.389 407.398 395.309 393.129Z" fill="black" stroke="black"/>
</mask>
<g mask="url(#mask0_382_922)">
<ellipse cx="438.991" cy="421.611" rx="32.6795" ry="19.3315" fill="white"/>
</g>
<path d="M85.3262 389.551C91.2536 393.024 102.3 397.887 118.466 389.551" stroke="black" stroke-width="10" stroke-linecap="round"/>
<path d="M597.787 154.652C603.714 158.125 614.761 162.988 630.926 154.652" stroke="black" stroke-width="10" stroke-linecap="round"/>
<path d="M241.094 196.412C251.99 197.088 271.88 196.793 296.988 181.435" stroke="black" stroke-width="10" stroke-linecap="round"/>
<path d="M12.5508 570.355H71.3508C91.4841 570.355 106.484 573.289 116.351 579.155C126.217 584.889 131.151 595.222 131.151 610.155C131.151 626.689 125.151 638.089 113.151 644.355C101.951 650.089 86.2841 652.955 66.1508 652.955H64.5508V706.555H89.5508V710.355H12.5508V706.555H25.5508V574.155H12.5508V570.355ZM64.5508 574.155V649.155H68.7508C76.7508 649.155 82.2841 646.422 85.3508 640.955C88.4174 635.489 89.9508 626.622 89.9508 614.355V604.755C89.9508 593.422 88.4841 585.489 85.5508 580.955C82.7508 576.422 77.5508 574.155 69.9508 574.155H64.5508ZM188.254 616.755C182.387 616.755 178.187 619.955 175.654 626.355C173.121 632.755 171.854 643.355 171.854 658.155V668.555C171.854 681.755 173.321 691.222 176.254 696.955C179.187 702.689 184.587 705.555 192.454 705.555C200.321 705.555 206.587 702.889 211.254 697.555C215.921 692.222 218.921 686.155 220.254 679.355L223.854 679.755C221.321 691.222 216.654 699.489 209.854 704.555C202.921 709.755 193.387 712.355 181.254 712.355C165.787 712.355 153.921 708.222 145.654 699.955C137.387 691.555 133.254 679.355 133.254 663.355C133.254 647.222 137.921 634.822 147.254 626.155C156.721 617.489 169.854 613.155 186.654 613.155C198.521 613.155 207.587 615.489 213.854 620.155C220.121 624.689 223.254 630.422 223.254 637.355C223.254 644.289 221.721 649.355 218.654 652.555C215.721 655.755 211.587 657.355 206.254 657.355C201.054 657.355 196.854 655.955 193.654 653.155C190.454 650.355 188.854 646.222 188.854 640.755C188.854 638.355 189.187 635.955 189.854 633.555H196.454C197.387 630.889 197.854 628.489 197.854 626.355C197.854 619.955 194.654 616.755 188.254 616.755ZM226.98 560.355H275.18V633.555C277.314 627.422 280.58 622.489 284.98 618.755C289.38 615.022 296.047 613.155 304.98 613.155C325.647 613.155 335.98 624.289 335.98 646.555V706.755H347.18V710.355H290.58V706.755H298.78V641.755C298.78 633.755 298.247 628.622 297.18 626.355C296.114 623.955 294.18 622.755 291.38 622.755C287.114 622.755 283.314 625.555 279.98 631.155C276.78 636.755 275.18 643.555 275.18 651.555V706.755H283.78V710.355H226.98V706.755H237.98V563.955H226.98V560.355ZM402.823 712.355C385.623 712.355 372.689 707.955 364.023 699.155C355.489 690.222 351.223 677.889 351.223 662.155C351.223 646.289 356.023 634.155 365.623 625.755C375.356 617.355 387.689 613.155 402.623 613.155C432.889 613.155 447.423 628.355 446.223 658.755H389.823V666.555C389.823 679.622 391.489 689.489 394.823 696.155C398.156 702.822 403.956 706.155 412.223 706.155C427.689 706.155 437.823 697.889 442.623 681.355L446.223 681.955C443.689 691.555 439.089 699.022 432.423 704.355C425.889 709.689 416.023 712.355 402.823 712.355ZM390.023 654.755H410.623V644.955C410.623 634.155 409.956 626.822 408.623 622.955C407.423 618.955 404.889 616.955 401.023 616.955C397.289 616.955 394.489 619.089 392.623 623.355C390.889 627.489 390.023 634.689 390.023 644.955V654.755ZM493.948 668.955C493.948 682.955 494.681 692.289 496.148 696.955C497.614 701.489 500.281 703.755 504.148 703.755C508.148 703.755 511.548 702.022 514.348 698.555C517.281 695.089 518.748 689.955 518.748 683.155V639.555C518.748 633.822 517.614 628.955 515.348 624.955C513.081 620.955 509.748 618.955 505.348 618.955C500.948 618.955 497.948 621.889 496.348 627.755C494.748 633.622 493.948 643.889 493.948 658.555V668.955ZM521.348 710.355L519.148 696.355C514.614 707.022 505.414 712.355 491.548 712.355C480.081 712.355 471.148 708.222 464.748 699.955C458.481 691.689 455.348 679.355 455.348 662.955C455.348 629.755 468.548 613.155 494.948 613.155C506.681 613.155 514.414 616.422 518.148 622.955V563.955H505.948V560.355H555.948V706.755H565.748V710.355H521.348ZM686.949 710.355H641.349L639.149 695.755C637.016 701.089 633.816 705.222 629.549 708.155C625.416 710.955 619.216 712.355 610.949 712.355C590.283 712.355 579.949 701.222 579.949 678.955V618.755H568.749V615.155H617.149V683.755C617.149 691.755 617.683 697.022 618.749 699.555C619.949 702.089 622.216 703.355 625.549 703.355C629.016 703.355 632.083 701.289 634.749 697.155C637.416 693.022 638.749 687.289 638.749 679.955V618.755H629.549V615.155H675.949V706.755H686.949V710.355ZM690.243 560.355H739.243V706.755H750.443V710.355H691.043V706.755H702.043V563.955H690.243V560.355ZM806.924 712.355C789.724 712.355 776.791 707.955 768.124 699.155C759.591 690.222 755.324 677.889 755.324 662.155C755.324 646.289 760.124 634.155 769.724 625.755C779.458 617.355 791.791 613.155 806.724 613.155C836.991 613.155 851.524 628.355 850.324 658.755H793.924V666.555C793.924 679.622 795.591 689.489 798.924 696.155C802.258 702.822 808.058 706.155 816.324 706.155C831.791 706.155 841.924 697.889 846.724 681.355L850.324 681.955C847.791 691.555 843.191 699.022 836.524 704.355C829.991 709.689 820.124 712.355 806.924 712.355ZM794.124 654.755H814.724V644.955C814.724 634.155 814.058 626.822 812.724 622.955C811.524 618.955 808.991 616.955 805.124 616.955C801.391 616.955 798.591 619.089 796.724 623.355C794.991 627.489 794.124 634.689 794.124 644.955V654.755Z" fill="black"/>
</svg>
